<?xml version="1.0" standalone="no"?>
<!DOCTYPE svg PUBLIC "-//W3C//DTD SVG 20010904//EN"
 "http://www.w3.org/TR/2001/REC-SVG-20010904/DTD/svg10.dtd">
<svg version="1.0" xmlns="http://www.w3.org/2000/svg"
 width="300.000000pt" height="300.000000pt" viewBox="0 0 300.000000 300.000000"
 preserveAspectRatio="xMidYMid meet">
<metadata>
Created by potrace 1.14, written by Peter Selinger 2001-2017
</metadata>
<g transform="translate(0.000000,300.000000) scale(0.100000,-0.100000)"
fill="#000000" stroke="none">
<path d="M1459 2253 c-12 -13 -14 -150 -15 -792 0 -427 3 -783 7 -792 13 -26
58 -33 80 -13 18 16 19 46 19 799 0 745 -1 783 -18 798 -24 22 -56 22 -73 0z"/>
<path d="M1005 1915 c-16 -8 -39 -20 -49 -27 -45 -30 -132 -83 -142 -88 -65
-31 -446 -277 -459 -297 -23 -35 -14 -91 20 -118 14 -12 105 -70 202 -129 98
-60 234 -144 303 -186 141 -87 158 -94 201 -85 62 14 62 14 61 453 0 218 -1
407 -1 420 -1 31 -48 72 -80 72 -14 -1 -39 -7 -56 -15z"/>
<path d="M1894 1918 c-12 -5 -27 -21 -33 -34 -15 -35 -15 -823 0 -857 12 -26
47 -47 77 -47 26 0 77 30 392 223 160 98 297 188 305 200 19 27 19 77 0 104
-8 12 -108 78 -222 148 -115 70 -246 151 -293 180 -162 101 -178 107 -226 83z"/>
</g>
</svg>
